# xmcd CD database file
#
# Track frame offsets:
#	150
#	14130
#	28872
#	51387
#	68325
#	106625
#	122567
#	135392
#	153137
#	163477
#	196595
#	212562
#	229200
#	242575
#	256130
#	266577
#	280495
#
# Disc length: 3949 seconds
#
# Revision: 2
# Processed by: cddbd v1.4b41PL1 Copyright (c) Steve Scherf et al.
# Submitted via: Feurio! 1.50.2ß - http://www.feurio.com
#
DISCID=e50f6c11,e80f6b11
DTITLE=Blues 'n' Trouble - Live
DYEAR=1900
DGENRE=
TTITLE0=Clock on the wall
TTITLE1=Born in Chicago
TTITLE2=Cherry peaches
TTITLE3=Sugar coated love
TTITLE4=BNT blues
TTITLE5=What's the matter
TTITLE6=Why
TTITLE7=Travelling light
TTITLE8=Honey pot
TTITLE9=Driftin' blues
TTITLE10=See my baby shake it
TTITLE11=Madison blues
TTITLE12=Lying on the kitchen floor
TTITLE13=Sloppy drunk
TTITLE14=Deep blue feeling
TTITLE15=Spank the plank
TTITLE16=Born in Chicago (studio version)
EXTD=Universe CDSP 8895-2
EXTT0=
EXTT1=
EXTT2=
EXTT3=
EXTT4=
EXTT5=
EXTT6=
EXTT7=
EXTT8=
EXTT9=
EXTT10=
EXTT11=
EXTT12=
EXTT13=
EXTT14=
EXTT15=
EXTT16=
PLAYORDER=
